<svg id="master-artboard" viewBox="0 0 1400 980" version="1.1"
    xmlns="http://www.w3.org/2000/svg" x="0px" y="0px" style="enable-background:new 0 0 1400 980;" width="1400px" height="980px">
    <g transform="matrix(12.5, 0, 0, 12.5, 0, 340.0000305175781)">
        <g stroke="none" stroke-width="1" fill="none" fill-rule="evenodd">
            <g transform="translate(-76.000000, -294.000000)">
                <g transform="translate(76.000000, 294.000000)">
                    <path d="M106.501611,11.0429918 L102.931858,11.0429918 L102.931858,19.2634849 L100.505556,19.2634849 L100.505556,11.0429918 L98.8018849,11.0429918 L98.8018849,9.08189589 L100.505556,9.08189589 L100.505556,7.66556712 C100.505556,6.5957589 100.853721,5.71926575 101.550378,5.03608767 C102.247036,4.35258082 103.139967,4.01099178 104.229501,4.01099178 C104.519803,4.01099178 104.777556,4.0257863 105.002104,4.05537534 C105.226323,4.08529315 105.42457,4.13000548 105.596186,4.18918356 L105.596186,6.25910137 C105.516953,6.21307397 105.378214,6.15685479 105.180296,6.0907726 C104.982049,6.02501918 104.754214,5.9918137 104.497118,5.9918137 C103.994762,5.9918137 103.608789,6.14863562 103.337885,6.46227945 C103.066981,6.77592329 102.931858,7.2398137 102.931858,7.85362192 L102.931858,9.08189589 L106.501611,9.08189589 L106.501611,6.79400548 L108.908515,6.06118356 L108.908515,9.08189589 L111.335145,9.08189589 L111.335145,11.0429918 L108.908515,11.0429918 L108.908515,15.8068274 C108.908515,16.4344438 109.022268,16.8766356 109.250104,17.1340603 C109.47794,17.3914849 109.835967,17.5203616 110.324844,17.5203616 C110.463255,17.5203616 110.62994,17.4874849 110.824899,17.4214027 C111.019529,17.3553205 111.189501,17.2764164 111.335145,17.1837041 L111.335145,19.164526 C111.182926,19.2503342 110.930433,19.3295671 110.577337,19.4022247 C110.224241,19.4748822 109.875748,19.5110466 109.532515,19.5110466 C108.522214,19.5110466 107.764405,19.2424438 107.259419,18.7039233 C106.754104,18.1657315 106.501611,17.3553205 106.501611,16.2723616 L106.501611,11.0429918 Z M90.5869808,14.2422247 C90.5869808,15.3051288 90.8279671,16.1171836 91.3099397,16.6787178 C91.7919123,17.2399233 92.4819945,17.5203616 93.3798575,17.5203616 C94.2517479,17.5203616 94.9152,17.2399233 95.3705425,16.6787178 C95.8262137,16.1171836 96.0540493,15.2854027 96.0540493,14.1827178 C96.0540493,13.0866082 95.8179945,12.2597589 95.3458849,11.7015123 C94.8737753,11.1435945 94.2116384,10.8648 93.3601315,10.8648 C92.4819945,10.8648 91.8001315,11.1567452 91.3148712,11.7412932 C90.829611,12.3255123 90.5869808,13.1592658 90.5869808,14.2422247 Z M88.0909808,14.3211288 C88.0909808,12.6375123 88.5663781,11.3040329 89.5171726,10.3200329 C90.4679671,9.33603288 91.7886247,8.84419726 93.4788164,8.84419726 C95.0703781,8.84419726 96.3131178,9.31795068 97.2080219,10.2654575 C98.1025973,11.2132932 98.5500493,12.492526 98.5500493,14.1034849 C98.5500493,15.7542247 98.0743233,17.0683068 97.1238575,18.0454027 C96.173063,19.0228274 94.8787068,19.5110466 93.2411178,19.5110466 C91.6630356,19.5110466 90.4101041,19.0474849 89.4826521,18.1197041 C88.5548712,17.1922521 88.0909808,15.9258411 88.0909808,14.3211288 Z M82.693611,11.7560877 C82.693611,12.0996493 82.8024329,12.3685808 83.0204055,12.5635397 C83.2380493,12.7581699 83.7200219,13.0040877 84.4663233,13.3009644 C85.4236932,13.6843068 86.0956932,14.1149918 86.4819945,14.5936767 C86.8682959,15.0723616 87.0612822,15.6519781 87.0612822,16.3318685 C87.0612822,17.2892384 86.693063,18.0585534 85.9569534,18.6394849 C85.2205151,19.2207452 84.225337,19.5110466 82.9707616,19.5110466 C82.5482959,19.5110466 82.0811178,19.4600877 81.5692274,19.3575123 C81.0576658,19.2552658 80.6233644,19.125074 80.2669808,18.9662795 L80.2669808,16.6093479 C80.702926,16.9131288 81.1714192,17.1537863 81.6734466,17.3319781 C82.1751452,17.5104986 82.6304877,17.5995945 83.0401315,17.5995945 C83.581611,17.5995945 83.981063,17.5236493 84.2384877,17.3717589 C84.4962411,17.2201973 84.624789,16.9657315 84.624789,16.6093479 C84.624789,16.278937 84.4913096,16.0001425 84.2236932,15.7723068 C83.9564055,15.5444712 83.4494466,15.2817863 82.703474,14.9849096 C81.8187616,14.6150466 81.191474,14.1991562 80.821611,13.7369096 C80.4517479,13.274663 80.2669808,12.6871562 80.2669808,11.9740603 C80.2669808,11.0561425 80.6315836,10.3019507 81.3614466,9.7108274 C82.0906521,9.12003288 83.0368438,8.82447123 84.1990356,8.82447123 C84.5554192,8.82447123 84.9552,8.86392329 85.3973918,8.94315616 C85.8399123,9.02271781 86.2094466,9.12496438 86.5066521,9.25022466 L86.5066521,11.5282521 C86.1897205,11.3168548 85.8198575,11.1357041 85.3973918,10.9834849 C84.9745973,10.8315945 84.5554192,10.7556493 84.1395288,10.7556493 C83.6838575,10.7556493 83.3291178,10.8447452 83.0749808,11.022937 C82.8205151,11.2014575 82.693611,11.4457315 82.693611,11.7560877 Z M71.165063,14.2422247 C71.165063,15.3051288 71.4060493,16.1171836 71.8883507,16.6787178 C72.3699945,17.2399233 73.0600767,17.5203616 73.9579397,17.5203616 C74.8298301,17.5203616 75.4932822,17.2399233 75.9486247,16.6787178 C76.4042959,16.1171836 76.6321315,15.2854027 76.6321315,14.1827178 C76.6321315,13.0866082 76.3960767,12.2597589 75.9239671,11.7015123 C75.4518575,11.1435945 74.7900493,10.8648 73.9385425,10.8648 C73.0600767,10.8648 72.3785425,11.1567452 71.8929534,11.7412932 C71.4076932,12.3255123 71.165063,13.1592658 71.165063,14.2422247 Z M68.669063,14.3211288 C68.669063,12.6375123 69.1444603,11.3040329 70.0952548,10.3200329 C71.0463781,9.33603288 72.3667068,8.84419726 74.0572274,8.84419726 C75.6484603,8.84419726 76.8915288,9.31795068 77.7861041,10.2654575 C78.6806795,11.2132932 79.1281315,12.492526 79.1281315,14.1034849 C79.1281315,15.7542247 78.6527342,17.0683068 77.7019397,18.0454027 C76.7511452,19.0228274 75.4571178,19.5110466 73.8195288,19.5110466 C72.2411178,19.5110466 70.9885151,19.0474849 70.0607342,18.1197041 C69.1329534,17.1922521 68.669063,15.9258411 68.669063,14.3211288 Z M67.6380493,8.91356712 C67.8293918,8.91356712 68.001337,8.92704658 68.1532274,8.95334795 C68.3051178,8.97964932 68.4336658,9.01252603 68.5395288,9.05230685 L68.5395288,11.4786082 C68.4139397,11.3862247 68.2308164,11.2991014 67.9898301,11.2162521 C67.7488438,11.1337315 67.4565699,11.0926356 67.113337,11.0926356 C66.5255014,11.0926356 66.0287342,11.3401973 65.6227068,11.8353205 C65.2166795,12.3304438 65.0135014,13.0931836 65.0135014,14.123211 L65.0135014,19.2634849 L62.6164603,19.2634849 L62.6164603,9.08189589 L65.0135014,9.08189589 L65.0135014,10.6862795 L65.0529534,10.6862795 C65.270926,10.1316493 65.6010082,9.69767671 66.0435288,9.38403288 C66.4860493,9.07071781 67.017337,8.91356712 67.6380493,8.91356712 Z M58.4470356,17.5203616 C58.8034192,17.5203616 59.1962959,17.4381699 59.6256658,17.2728 C60.0547068,17.1077589 60.4508712,16.8901151 60.8141589,16.619211 L60.8141589,18.8475945 C60.4311452,19.0655671 59.9971726,19.2306082 59.5115836,19.3427178 C59.0266521,19.4551562 58.493063,19.5110466 57.9121315,19.5110466 C56.4132822,19.5110466 55.1948712,19.0376219 54.2575562,18.0897863 C53.3199123,17.1426082 52.8510904,15.9324164 52.8510904,14.4601973 C52.8510904,12.8226082 53.3297753,11.4740055 54.287474,10.4140603 C55.2445151,9.35411507 56.601337,8.82447123 58.3579397,8.82447123 C58.8070356,8.82447123 59.2607342,8.88233425 59.7200219,8.99773151 C60.1786521,9.11345753 60.5432548,9.24693699 60.8141589,9.3988274 L60.8141589,11.6965808 C60.4442959,11.4260055 60.0665425,11.2162521 59.6799123,11.0676493 C59.2939397,10.9193753 58.8990904,10.8447452 58.4966795,10.8447452 C57.5524603,10.8447452 56.7897205,11.1518137 56.208789,11.7659507 C55.6275288,12.3800877 55.3368986,13.2085808 55.3368986,14.2520877 C55.3368986,15.2817863 55.6160219,16.0843068 56.1739397,16.658663 C56.7318575,17.2333479 57.4896658,17.5203616 58.4470356,17.5203616 Z M48.7806247,19.2634849 L51.177337,19.2634849 L51.177337,9.08189589 L48.7806247,9.08189589 L48.7806247,19.2634849 Z M48.5327342,6.14041644 C48.5327342,5.74425205 48.6764055,5.41252603 48.9637479,5.14490959 C49.2510904,4.87762192 49.5926795,4.7438137 49.9888438,4.7438137 C50.4113096,4.7438137 50.7614466,4.88090959 51.0385973,5.1547726 C51.3160767,5.42896438 51.4548164,5.75740274 51.4548164,6.14041644 C51.4548164,6.53000548 51.312789,6.8568 51.0287342,7.1208 C50.7446795,7.38512877 50.3981589,7.51696438 49.9888438,7.51696438 C49.5792,7.51696438 49.2343233,7.38348493 48.9538849,7.11619726 C48.6731178,6.84825205 48.5327342,6.52343014 48.5327342,6.14041644 Z M46.4703781,5.06074521 L46.4703781,19.2634849 L44.0042959,19.2634849 L44.0042959,8.13110137 L43.9648438,8.13110137 L39.557063,19.2634849 L37.9230904,19.2634849 L33.4064877,8.13110137 L33.3768986,8.13110137 L33.3768986,19.2634849 L31.0988712,19.2634849 L31.0988712,5.06074521 L34.6347616,5.06074521 L38.7154192,15.5891836 L38.7745973,15.5891836 L43.0830904,5.06074521 L46.4703781,5.06074521 Z" fill="#737373"/>
                    <path d="M 0.3274520933628082 11.577205657958984 L 11.577205657958984 11.577205657958984 L 11.577205657958984 0.3274520933628082 L 0.3274520933628082 0.3274520933628082 Z" fill="#F25022"/>
                    <path d="M 12.747944831848145 11.577205657958984 L 23.997697830200195 11.577205657958984 L 23.997697830200195 0.3274520933628082 L 12.747944831848145 0.3274520933628082 Z" fill="#7FBA00"/>
                    <path d="M 0.3274520933628082 23.997697830200195 L 11.577205657958984 23.997697830200195 L 11.577205657958984 12.747944831848145 L 0.3274520933628082 12.747944831848145 Z" fill="#00A4EF"/>
                    <path d="M 12.747944831848145 23.997697830200195 L 23.997697830200195 23.997697830200195 L 23.997697830200195 12.747944831848145 L 12.747944831848145 12.747944831848145 Z" fill="#FFB900"/>
                </g>
            </g>
        </g>
    </g>
</svg>